<svg width="24" height="24" viewBox="0 0 24 24" fill="none" xmlns="http://www.w3.org/2000/svg">
  <!-- Esempio di icona fiamma per "Corte Rossa" -->
  <!-- Puoi sostituire questo con la tua icona personalizzata -->
  <path d="M12 20C12 20 8 16 8 12C8 10 9 8 10 7C10 9 11 11 12 12C13 11 14 9 14 7C15 8 16 10 16 12C16 16 12 20 12 20Z" fill="#f43f5e"/>
  <path d="M12 18C12 18 10 15 10 13C10 12 10.5 11 11 10.5C11 11.5 11.5 12.5 12 13C12.5 12.5 13 11.5 13 10.5C13.5 11 14 12 14 13C14 15 12 18 12 18Z" fill="white" opacity="0.9"/>
  <!-- Fiamme secondarie -->
  <path d="M8 14L6 16L7 18" stroke="#f43f5e" stroke-width="1.5" stroke-linecap="round" opacity="0.7"/>
  <path d="M16 14L18 16L17 18" stroke="#f43f5e" stroke-width="1.5" stroke-linecap="round" opacity="0.7"/>
</svg>
